o mur
v  0.0  0.0  0.0
v  0.0  0.0  0.1
v  0.0  1.0  0.0
v  0.0  1.0  0.1
v  1.0  0.0  0.0
v  1.0  0.0  0.1
v  1.0  1.0  0.0
v  1.0  1.0  0.1
vt 0    0.25
vt 0.25 0.25
vt 0.5  0.25
vt 0.75 0.25
vt 0.0  0.5
vt 0.25 0.5
vt 0.5  0.5
vt 0.75 0.5
vt 0.25 0.75
vt 0.5  0.75
vt 0.25 1.0
vt 0.5  1.0
vn  0.0  0.0  1.0
vn  0.0  0.0 -1.0
vn  1.0  0.0  0.0
vn -1.0  0.0  0.0
f  1/9/2  7/12/2  5/10/2
f  1/9/2  3/11/2  7/12/2
f  1/5/4  4/2/4  3/1/4 
f  1/5/4  2/6/4  4/2/4 
f  5/8/3  7/4/3  8/3/3 
f  5/8/3  8/3/3  6/7/3 
f  2/6/1  6/7/1  8/3/1 
f  2/6/1  8/3/1  4/2/1 